<svg width="24" height="27" viewBox="0 0 24 27" fill="none" xmlns="http://www.w3.org/2000/svg">
<g id="Group 20343">
<path id="icon" fill-rule="evenodd" clip-rule="evenodd" d="M2.88537 11.3404C2.70161 11.7441 2.66659 11.9503 2.66659 12V20.4971C2.66659 21.0823 3.18753 21.557 3.83325 21.557H7.33325V15.1857C7.33325 14.0127 8.37792 13.0619 9.66659 13.0619H14.3333C15.6219 13.0619 16.6666 14.0127 16.6666 15.1857V21.557H20.1666C20.8123 21.557 21.3333 21.0823 21.3333 20.4971V12C21.3333 11.9503 21.2982 11.7441 21.1145 11.3404C20.9438 10.9653 20.685 10.5055 20.3471 9.98501C19.6724 8.94576 18.7257 7.73116 17.6662 6.5739C16.6042 5.41399 15.4578 4.3434 14.3918 3.57337C13.859 3.18843 13.3692 2.8954 12.9397 2.70247C12.5005 2.50519 12.1914 2.44294 11.9999 2.44294C11.8085 2.44294 11.4994 2.50519 11.0602 2.70247C10.6307 2.8954 10.1409 3.18843 9.608 3.57337C8.54203 4.3434 7.39564 5.41399 6.33368 6.5739C5.27414 7.73116 4.32747 8.94576 3.65277 9.98501C3.31488 10.5055 3.05608 10.9653 2.88537 11.3404ZM10.0276 0.797973C10.6411 0.522378 11.3164 0.319153 11.9999 0.319153C12.6835 0.319153 13.3587 0.522378 13.9723 0.797973C14.5955 1.07792 15.2268 1.46516 15.8424 1.90983C17.0733 2.799 18.3331 3.98494 19.4587 5.21428C20.5866 6.44629 21.6087 7.75368 22.3559 8.90458C22.7289 9.4792 23.0444 10.0315 23.2701 10.5275C23.4829 10.9949 23.6666 11.5187 23.6666 12V20.4971C23.6666 22.2577 22.0982 23.6808 20.1666 23.6808H16.6666C15.3779 23.6808 14.3333 22.73 14.3333 21.557V15.1857H9.66659V21.557C9.66659 22.73 8.62192 23.6808 7.33325 23.6808H3.83325C1.90165 23.6808 0.333252 22.2577 0.333252 20.4971V12C0.333252 11.5187 0.51698 10.9949 0.729704 10.5275C0.955481 10.0315 1.27089 9.4792 1.64394 8.90458C2.39112 7.75368 3.41319 6.44629 4.54116 5.21428C5.6667 3.98494 6.92656 2.799 8.15746 1.90983C8.77303 1.46516 9.40433 1.07792 10.0276 0.797973Z" fill="#2E5077"/>
</g>
</svg>
