<svg width="28" height="28" viewBox="0 0 28 28" fill="none" xmlns="http://www.w3.org/2000/svg">
<g id="icons navbar petugas">
<path id="Vector" d="M5.83325 25.6666C5.19159 25.6666 4.64247 25.4384 4.18592 24.9818C3.72936 24.5253 3.5007 23.9758 3.49992 23.3333V10.1791C3.14992 9.96526 2.86797 9.68837 2.65409 9.34848C2.4402 9.00859 2.33325 8.61465 2.33325 8.16665V4.66665C2.33325 4.02498 2.56192 3.47587 3.01925 3.01931C3.47659 2.56276 4.0257 2.33409 4.66659 2.33331H23.3333C23.9749 2.33331 24.5244 2.56198 24.9818 3.01931C25.4391 3.47665 25.6674 4.02576 25.6666 4.66665V8.16665C25.6666 8.61387 25.5596 9.00781 25.3458 9.34848C25.1319 9.68915 24.8499 9.96565 24.4999 10.178V23.3333C24.4999 23.975 24.2716 24.5245 23.8151 24.9818C23.3585 25.4391 22.809 25.6674 22.1666 25.6666H5.83325ZM5.83325 10.5V23.3333H22.1666V10.5H5.83325ZM4.66659 8.16665H23.3333V4.66665H4.66659V8.16665ZM11.6666 16.3333H16.3333C16.6638 16.3333 16.9411 16.2213 17.1651 15.9973C17.3891 15.7733 17.5007 15.4964 17.4999 15.1666C17.4991 14.8369 17.3871 14.56 17.1639 14.336C16.9407 14.112 16.6638 14 16.3333 14H11.6666C11.336 14 11.0591 14.112 10.8359 14.336C10.6127 14.56 10.5007 14.8369 10.4999 15.1666C10.4991 15.4964 10.6111 15.7737 10.8359 15.9985C11.0607 16.2233 11.3376 16.3349 11.6666 16.3333Z" fill="#B3B3B3"/>
</g>
</svg>
