<svg width="29" height="28" viewBox="0 0 29 28" fill="none" xmlns="http://www.w3.org/2000/svg">
<g id="icons navbar petugas">
<path id="Vector" d="M14.3332 16.3333C14.5639 16.3333 14.7895 16.2649 14.9813 16.1367C15.1732 16.0085 15.3227 15.8263 15.411 15.6131C15.4993 15.3999 15.5224 15.1654 15.4774 14.939C15.4324 14.7127 15.3213 14.5049 15.1581 14.3417C14.995 14.1785 14.7871 14.0674 14.5608 14.0224C14.3345 13.9774 14.0999 14.0005 13.8867 14.0888C13.6735 14.1771 13.4913 14.3266 13.3631 14.5185C13.2349 14.7103 13.1665 14.9359 13.1665 15.1666C13.1665 15.4761 13.2894 15.7728 13.5082 15.9916C13.727 16.2104 14.0238 16.3333 14.3332 16.3333ZM20.1665 16.3333C20.3972 16.3333 20.6228 16.2649 20.8147 16.1367C21.0065 16.0085 21.1561 15.8263 21.2444 15.6131C21.3327 15.3999 21.3558 15.1654 21.3108 14.939C21.2657 14.7127 21.1546 14.5049 20.9915 14.3417C20.8283 14.1785 20.6204 14.0674 20.3941 14.0224C20.1678 13.9774 19.9332 14.0005 19.72 14.0888C19.5069 14.1771 19.3247 14.3266 19.1965 14.5185C19.0683 14.7103 18.9998 14.9359 18.9998 15.1666C18.9998 15.4761 19.1228 15.7728 19.3415 15.9916C19.5603 16.2104 19.8571 16.3333 20.1665 16.3333ZM14.3332 21C14.5639 21 14.7895 20.9316 14.9813 20.8034C15.1732 20.6752 15.3227 20.493 15.411 20.2798C15.4993 20.0666 15.5224 19.832 15.4774 19.6057C15.4324 19.3794 15.3213 19.1715 15.1581 19.0084C14.995 18.8452 14.7871 18.7341 14.5608 18.6891C14.3345 18.644 14.0999 18.6672 13.8867 18.7555C13.6735 18.8438 13.4913 18.9933 13.3631 19.1851C13.2349 19.377 13.1665 19.6026 13.1665 19.8333C13.1665 20.1427 13.2894 20.4395 13.5082 20.6583C13.727 20.8771 14.0238 21 14.3332 21ZM20.1665 21C20.3972 21 20.6228 20.9316 20.8147 20.8034C21.0065 20.6752 21.1561 20.493 21.2444 20.2798C21.3327 20.0666 21.3558 19.832 21.3108 19.6057C21.2657 19.3794 21.1546 19.1715 20.9915 19.0084C20.8283 18.8452 20.6204 18.7341 20.3941 18.6891C20.1678 18.644 19.9332 18.6672 19.72 18.7555C19.5069 18.8438 19.3247 18.9933 19.1965 19.1851C19.0683 19.377 18.9998 19.6026 18.9998 19.8333C18.9998 20.1427 19.1228 20.4395 19.3415 20.6583C19.5603 20.8771 19.8571 21 20.1665 21ZM8.49984 16.3333C8.73058 16.3333 8.95615 16.2649 9.148 16.1367C9.33986 16.0085 9.4894 15.8263 9.5777 15.6131C9.666 15.3999 9.6891 15.1654 9.64409 14.939C9.59907 14.7127 9.48796 14.5049 9.3248 14.3417C9.16163 14.1785 8.95375 14.0674 8.72744 14.0224C8.50113 13.9774 8.26655 14.0005 8.05337 14.0888C7.84019 14.1771 7.65798 14.3266 7.52979 14.5185C7.40159 14.7103 7.33317 14.9359 7.33317 15.1666C7.33317 15.4761 7.45609 15.7728 7.67488 15.9916C7.89367 16.2104 8.19042 16.3333 8.49984 16.3333ZM22.4998 4.66665H21.3332V3.49998C21.3332 3.19056 21.2103 2.89381 20.9915 2.67502C20.7727 2.45623 20.4759 2.33331 20.1665 2.33331C19.8571 2.33331 19.5603 2.45623 19.3415 2.67502C19.1228 2.89381 18.9998 3.19056 18.9998 3.49998V4.66665H9.6665V3.49998C9.6665 3.19056 9.54359 2.89381 9.3248 2.67502C9.106 2.45623 8.80926 2.33331 8.49984 2.33331C8.19042 2.33331 7.89367 2.45623 7.67488 2.67502C7.45609 2.89381 7.33317 3.19056 7.33317 3.49998V4.66665H6.1665C5.23825 4.66665 4.34801 5.0354 3.69163 5.69177C3.03525 6.34815 2.6665 7.23839 2.6665 8.16665V22.1666C2.6665 23.0949 3.03525 23.9851 3.69163 24.6415C4.34801 25.2979 5.23825 25.6666 6.1665 25.6666H22.4998C23.4281 25.6666 24.3183 25.2979 24.9747 24.6415C25.6311 23.9851 25.9998 23.0949 25.9998 22.1666V8.16665C25.9998 7.23839 25.6311 6.34815 24.9747 5.69177C24.3183 5.0354 23.4281 4.66665 22.4998 4.66665ZM23.6665 22.1666C23.6665 22.4761 23.5436 22.7728 23.3248 22.9916C23.106 23.2104 22.8093 23.3333 22.4998 23.3333H6.1665C5.85708 23.3333 5.56034 23.2104 5.34155 22.9916C5.12275 22.7728 4.99984 22.4761 4.99984 22.1666V11.6666H23.6665V22.1666ZM23.6665 9.33331H4.99984V8.16665C4.99984 7.85723 5.12275 7.56048 5.34155 7.34169C5.56034 7.1229 5.85708 6.99998 6.1665 6.99998H22.4998C22.8093 6.99998 23.106 7.1229 23.3248 7.34169C23.5436 7.56048 23.6665 7.85723 23.6665 8.16665V9.33331ZM8.49984 21C8.73058 21 8.95615 20.9316 9.148 20.8034C9.33986 20.6752 9.4894 20.493 9.5777 20.2798C9.666 20.0666 9.6891 19.832 9.64409 19.6057C9.59907 19.3794 9.48796 19.1715 9.3248 19.0084C9.16163 18.8452 8.95375 18.7341 8.72744 18.6891C8.50113 18.644 8.26655 18.6672 8.05337 18.7555C7.84019 18.8438 7.65798 18.9933 7.52979 19.1851C7.40159 19.377 7.33317 19.6026 7.33317 19.8333C7.33317 20.1427 7.45609 20.4395 7.67488 20.6583C7.89367 20.8771 8.19042 21 8.49984 21Z" fill="#B3B3B3"/>
</g>
</svg>
