<svg width="22" height="26" viewBox="0 0 22 26" fill="none" xmlns="http://www.w3.org/2000/svg">
<g id="Group">
<path id="Vector" fill-rule="evenodd" clip-rule="evenodd" d="M11.3597 25.1343L11.3457 25.1367L11.2629 25.1775L11.2395 25.1822L11.2232 25.1775L11.1404 25.1355C11.1279 25.1324 11.1186 25.1347 11.1124 25.1425L11.1077 25.1542L11.0879 25.6535L11.0937 25.6768L11.1054 25.692L11.2267 25.7783L11.2442 25.783L11.2582 25.7783L11.3795 25.692L11.3935 25.6733L11.3982 25.6535L11.3784 25.1553C11.3753 25.1429 11.369 25.1359 11.3597 25.1343ZM11.6677 25.0025L11.6514 25.0048L11.4367 25.1133L11.425 25.125L11.4215 25.1378L11.4425 25.6395L11.4484 25.6535L11.4577 25.6628L11.6922 25.7702C11.707 25.7741 11.7183 25.771 11.726 25.7608L11.7307 25.7445L11.691 25.0282C11.6871 25.0134 11.6794 25.0048 11.6677 25.0025ZM10.8335 25.0048C10.8284 25.0017 10.8223 25.0007 10.8164 25.002C10.8105 25.0033 10.8054 25.0068 10.802 25.0118L10.795 25.0282L10.7554 25.7445C10.7561 25.7585 10.7628 25.7678 10.7752 25.7725L10.7927 25.7702L11.0272 25.6617L11.0389 25.6523L11.0424 25.6395L11.0634 25.1378L11.0599 25.1238L11.0482 25.1122L10.8335 25.0048Z" fill="#B3B3B3"/>
<path id="Vector_2" fill-rule="evenodd" clip-rule="evenodd" d="M2.49996 8.49998C2.49996 6.33405 3.36037 4.25682 4.89192 2.72527C6.42347 1.19373 8.50069 0.333313 10.6666 0.333313C12.8326 0.333313 14.9098 1.19373 16.4413 2.72527C17.9729 4.25682 18.8333 6.33405 18.8333 8.49998V12.8913L20.959 17.1426C21.0568 17.3383 21.103 17.5558 21.0932 17.7743C21.0834 17.9929 21.0178 18.2053 20.9028 18.3914C20.7878 18.5775 20.6271 18.7311 20.436 18.8376C20.2449 18.9441 20.0297 19 19.811 19H15.1863C14.9268 20.0013 14.3421 20.888 13.5241 21.5211C12.7061 22.1541 11.701 22.4976 10.6666 22.4976C9.63226 22.4976 8.62718 22.1541 7.80915 21.5211C6.99113 20.888 6.40647 20.0013 6.14696 19H1.52229C1.30352 19 1.08836 18.9441 0.897271 18.8376C0.706177 18.7311 0.545487 18.5775 0.430462 18.3914C0.315437 18.2053 0.249897 17.9929 0.240066 17.7743C0.230235 17.5558 0.27644 17.3383 0.374293 17.1426L2.49996 12.8913V8.49998ZM8.64596 19C8.85076 19.3547 9.14531 19.6492 9.50001 19.854C9.85471 20.0587 10.2571 20.1665 10.6666 20.1665C11.0762 20.1665 11.4785 20.0587 11.8332 19.854C12.1879 19.6492 12.4825 19.3547 12.6873 19H8.64596ZM10.6666 2.66665C9.11953 2.66665 7.6358 3.28123 6.54184 4.37519C5.44787 5.46915 4.83329 6.95288 4.83329 8.49998V12.8913C4.83327 13.2534 4.74899 13.6105 4.58713 13.9343L3.22213 16.6666H18.1123L16.7473 13.9343C16.585 13.6106 16.5003 13.2535 16.5 12.8913V8.49998C16.5 6.95288 15.8854 5.46915 14.7914 4.37519C13.6975 3.28123 12.2137 2.66665 10.6666 2.66665Z" fill="#B3B3B3"/>
</g>
</svg>
